<?xml version="1.0" encoding="UTF-8"?>
<svg width="800" height="800" version="1.1" viewBox="0 0 800.00001 800.00001" xmlns="http://www.w3.org/2000/svg">
 <defs>
  <linearGradient id="c" x1="399.79" x2="-4.0753" y1="420" y2="788.57" gradientUnits="userSpaceOnUse">
   <stop stop-opacity=".42" offset="0"/>
   <stop stop-opacity="0" offset="1"/>
  </linearGradient>
  <mask id="b" maskUnits="userSpaceOnUse">
   <circle cx="400" cy="400" r="400" color="#000000" color-rendering="auto" fill="#fff" image-rendering="auto" shape-rendering="auto" solid-color="#000000" style="isolation:auto;mix-blend-mode:normal"/>
  </mask>
  <mask id="a" maskUnits="userSpaceOnUse">
   <circle cx="400" cy="400" r="400" color="#000000" color-rendering="auto" fill="#fff" image-rendering="auto" shape-rendering="auto" solid-color="#000000" style="isolation:auto;mix-blend-mode:normal"/>
  </mask>
 </defs>
 <circle cx="400" cy="400" r="400" color="#000000" color-rendering="auto" fill="#1c8adb" image-rendering="auto" shape-rendering="auto" solid-color="#000000" style="isolation:auto;mix-blend-mode:normal"/>
 <path d="m301.46 151.43c-11.905 0-22.567 5.1217-29.922 13.287l-270.57 270.57c12.859 195.83 116.22 343.08 369.17 364.04l161.07-161.07c8.1654-7.3546 13.287-18.017 13.287-29.922v-416.67c0-22.292-17.946-40.238-40.238-40.238z" color="#000000" color-rendering="auto" fill="url(#c)" image-rendering="auto" mask="url(#a)" shape-rendering="auto" solid-color="#000000" style="isolation:auto;mix-blend-mode:normal"/>
 <path d="m301.46 151.43c-22.292 0-40.238 17.946-40.238 40.238v416.67c0 22.292 17.946 40.238 40.238 40.238h202.8c22.292 0 40.238-17.946 40.238-40.238v-416.67c0-22.292-17.946-40.238-40.238-40.238h-202.8zm2.4531 11.883h197.89c16.03 0 28.934 12.904 28.934 28.934v415.51c0 16.03-12.904 28.934-28.934 28.934h-197.89c-16.03 0-28.934-12.904-28.934-28.934v-415.51c0-16.03 12.904-28.934 28.934-28.934zm72.471 20.449c-4.9495 0-8.9336 3.984-8.9336 8.9336s3.984 8.9336 8.9336 8.9336h52.951c4.9495 0 8.9356-3.984 8.9356-8.9336s-3.986-8.9336-8.9356-8.9336h-52.951zm-94.238 32.535v352.86h241.43v-352.86h-241.43zm12.381 14.184h216.67v324.49h-216.67v-324.49zm108.33 350.77a22.662 22.662 0 0 0 -22.662 22.662 22.662 22.662 0 0 0 22.662 22.662 22.662 22.662 0 0 0 22.662 -22.662 22.662 22.662 0 0 0 -22.662 -22.662z" color="#000000" color-rendering="auto" fill="#fff" image-rendering="auto" mask="url(#b)" shape-rendering="auto" solid-color="#000000" style="isolation:auto;mix-blend-mode:normal"/>
</svg>
